<svg xmlns="http://www.w3.org/2000/svg" viewBox="0 0 268.11 254.99"><title>losc lille</title><g id="fcadf657-1d6d-47ea-b84e-8f5fef5d33eb" data-name="Layer 2"><g id="c1a17a98-ab91-46cd-914d-e6873bb83bd9" data-name="Layer 1"><g id="3f8333fe-3e91-449e-bdd5-3ecef63238aa" data-name="path9267"><path d="M67.25,162.82H61.81V151.34h5.44Zm-5.08-.37h4.71V151.71H62.17Z" style="fill:#f3e600"/></g><g id="67db95a2-87c6-4750-92d7-047b2c686898" data-name="g9322"><g id="f3d6ccee-7c85-4806-b88c-ccccb822463c" data-name="g9318"><g id="0e20abf7-a16d-4f3a-a3f1-7ba5aeffea47" data-name="path4258"><path d="M216.9,255H51.21L0,97.4,134.05,0,268.11,97.39Z" style="fill:#2b2b65"/></g><g id="44b8422f-0914-46b1-9cf6-901e3a79dbe2" data-name="path9224"><path d="M208.6,243.53H59.53L13.46,101.76l120.6-87.62,120.6,87.62Z" style="fill:#fff"/></g></g><g id="8b060e7b-3bd9-48b5-896e-06f2c59c7804" data-name="g9303"><g id="c7fb0ba0-2213-4146-ae6a-eb592677d680" data-name="g9251"><g id="022a82d4-4fab-41bf-b7cd-ca250294c68a" data-name="path9174"><path d="M132.16,24.72c.08,16.92-9.08,31.26-42.29,52.71-50.3,34.76-47.83,50-54,68.27L22.22,104.6Z" style="fill:#e02117"/></g><g id="9b0dc7ec-4ab3-443d-a1ff-75b62e75c930" data-name="path9176"><path d="M49,185c-9.17-26.29-5.28-45.93,3.57-61.07C60.8,109.81,73.21,99.25,87,89.73,77.92,101,71.86,110.15,67.9,117.9c-10.72,21-8.76,34-5.18,44.89.6-14.58,2.63-28.81,17.94-40.49-10.6,26-4.26,41.82,1.54,49.51Z" style="fill:#e02117"/></g><g id="363349c4-8b8f-4c80-964e-85bc4fec9026" data-name="path9228"><path d="M134.07,158.65,50.92,193l14,43.14H203.19l14-43.14Z" style="fill:#e02117"/></g><g id="0e6363d3-e6af-4b25-883f-e0a8198caca6" data-name="path9243"><path d="M128,123.77c-1.6,14.91,4.23,17.21,9.93,20.45.39-6.27,2.45-7.91,5.3-8.55,13.58-3,17.38,12.06,26.09,17.13,4.81,2.76,14.6,1.59,19.62.13,17.49-5.08,23.73-23,25.14-36.48,3-1.77,6.55-1.94,7.41-9.43a181.91,181.91,0,0,1-37.11-20.61c1.39-1,3.81-.88,4.29-3.29.14-.39-2.61-2.6-5.65-5.29-6.9-6.08-18.53-15.33-24.39-16.67-.13-6.32-1.32-12.46-8.33-17.67a36.58,36.58,0,0,1-2.69,14.64l-5.39-.42c2.68-10.11,2.95-21-3.12-30.73L245.92,104.6,219.79,185l-83.43-33C128.3,148.54,118.93,140.55,128,123.77Z" style="fill:#2b2b65"/></g><g id="ad4ba51d-e5cc-45ea-8295-81437ff5e3b5" data-name="path9247"><path d="M152.62,83.38a22.38,22.38,0,0,1,11,12.54,26.32,26.32,0,0,1,7.74-1.1c3-.92,4.06-3.65,4.29-6.56a8.24,8.24,0,0,1-5.72.59C164.86,83.56,158.93,82.66,152.62,83.38Z" style="fill:#29285b"/></g></g><g id="f49aeb11-0215-4045-a421-8326746cfe40" data-name="g9295"><g id="e15ee29a-a69b-40c0-9f23-209ad1496542" data-name="path166"><path d="M134.9,184.9c.56-5.68,8.4-4.94,8.4-4.94l-3-3.67s-3.52-.47-5.1,3.54c0,.06-.05.14-.08.24a.11.11,0,0,1-.14.08c-.05,0-.08-.06-.07-.14s0-.14.05-.21a23.46,23.46,0,0,1,3.07-7l-3.91-5.27-3.91,5.27a23.46,23.46,0,0,1,3.07,7c0,.07,0,.12.05.21a.1.1,0,1,1-.2.06l-.09-.24a5,5,0,0,0-5.1-3.54L125,180s7.85-.74,8.41,4.94Z" style="fill:#fff"/></g><g id="7faba3fa-8836-4c95-94c4-9326bb7fd21b" data-name="g9289"><g id="23ac505a-ca8b-4ba3-a4fc-62c33d56066f" data-name="rect9258"><path d="M74.81,192.44v33.91H97l-2.11-7.51H84.41v-26.4Z" style="fill:#fff"/></g><g id="c2a0b389-cc80-47c3-8c13-e27612706919" data-name="rect9273"><path d="M172.22,192.48a5.71,5.71,0,0,0-5.95,5.47v18.72l3.25,9.64h17.85a5.72,5.72,0,0,0,5.95-5.48v-6.62h-9.07v5h-8.92V199.71h8.92v4.87h9.07V198a5.72,5.72,0,0,0-5.95-5.47Z" style="fill:#fff"/></g><g id="b3ef9cf8-72c1-4c5b-9bfe-819cf1a48ff4" data-name="path9282"><path d="M106.24,192.48a5.72,5.72,0,0,0-5.95,5.47v18.72l3.26,9.64h17.84a5.71,5.71,0,0,0,6-5.48V198a5.71,5.71,0,0,0-6-5.47Zm3.12,7.23h8.92v19.53h-8.92Z" style="fill:#fff"/></g><g id="e4b8de4f-fc87-4e1c-b310-3321cd61fc17" data-name="path9284"><path d="M141.33,211.79l9.94,2.36v5.09h-8.93v-2.57h-9.06l3.26,9.64h17.84a5.71,5.71,0,0,0,6-5.48v-7.61c-.16-2.67-2.26-5-10.41-6.56l-7.58-1.85v-5.1h8.93v2.82h9.06V198a5.71,5.71,0,0,0-6-5.47H139.23a5.71,5.71,0,0,0-5.95,5.47v8.71c.1,3.25,4.68,4.24,8.05,5.13Z" style="fill:#fff"/></g></g></g></g></g></g></g></svg>