<?xml version="1.0" encoding="utf-8"?>
<!-- Generator: Adobe Illustrator 17.0.0, SVG Export Plug-In . SVG Version: 6.00 Build 0)  -->
<!DOCTYPE svg PUBLIC "-//W3C//DTD SVG 1.1//EN" "http://www.w3.org/Graphics/SVG/1.1/DTD/svg11.dtd">
<svg version="1.1" id="Layer_1" xmlns="http://www.w3.org/2000/svg" xmlns:xlink="http://www.w3.org/1999/xlink" x="0px" y="0px"
	 width="500px" height="500px" viewBox="0 0 500 500" enable-background="new 0 0 500 500" xml:space="preserve">
<g>
	<path fill="#FFFFFF" d="M250.693,81.979c4.314-0.073,43.56,0.166,82.771,22.848c14.706,8.621,31.008,12.215,43.816,13.672
		c12.661,1.409,26.035,0.342,26.035,0.342l2.375,3.837c0.685,1.122,17.922,29.365,24.835,103.01
		c3.716,39.417,1.562,83.118-14.322,123.158C373.629,456.31,256.595,491.8,250.693,493.586
		C244.731,491.8,127.69,456.31,85.11,348.845c-15.845-40.04-18.031-83.741-14.331-123.158
		c6.967-73.645,24.192-101.889,24.838-103.01l2.381-3.837c0,0,13.397,1.067,25.936-0.342c12.91-1.457,29.194-5.051,43.906-13.672
		C207.05,82.145,246.363,81.905,250.693,81.979"/>
	<path fill-rule="evenodd" clip-rule="evenodd" fill="#008458" d="M76.8,225.55h347.918
		c-5.057-72.754-23.692-100.515-23.692-100.515s-38.12,3.195-70.274-15.454c-39.803-23.081-79.987-22.046-79.987-22.046
		s-39.998-1.035-79.881,22.046c-32.02,18.649-70.206,15.454-70.206,15.454S81.946,152.199,76.8,225.55 M425.886,249.682H75.616
		c-0.042,4.46-0.109,9.147-0.109,13.914c0,3.508,0.109,6.821,0.208,10.199H425.8c0.128-3.377,0.278-6.719,0.278-10.208
		C426.078,258.83,425.998,254.142,425.886,249.682 M423.614,297.968H77.958c1.117,8.409,2.8,16.454,4.858,24.164h335.997
		C420.749,314.422,422.407,306.378,423.614,297.968 M250.887,487.736c-4.372-1.224-118.33-35.902-160.156-141.491h320.088
		C368.999,451.766,255.188,486.458,250.887,487.736"/>
	<path fill-rule="evenodd" clip-rule="evenodd" fill="#FFFFFF" d="M147.182,377.962l1.85,1.831c2.672,2.735,3.927,5.262,2.333,6.847
		c-1.443,1.406-3.821,0.329-6.129-2.006l-2.378-2.399L147.182,377.962 M145.537,369.454l-18.757,18.483l4.945,5.077l7.678-7.38
		l4.058,4.07c5.063,5.099,10.139,5.099,13.185,2.199c3.658-3.636,2.215-8.936-2.013-13.326L145.537,369.454z M179.813,409.826
		c-2.285,4.3-7.63,5.262-12.424,2.636c-4.935-2.508-7.23-7.518-4.967-11.77c2.295-4.24,7.547-5.023,12.424-2.374
		C179.778,400.899,182.101,405.595,179.813,409.826 M186.595,413.302c2.986-5.566,0.586-14.716-9.137-19.78
		c-9.617-5.163-18.62-1.936-21.647,3.697c-3.178,6.004-0.423,15.186,8.967,20.18C174.056,422.251,183.398,419.261,186.595,413.302
		 M201.694,408.503l3.444,0.908c2.637,0.85,4.752,2.086,4.301,4.061c-0.55,2.246-3.236,2.374-5.802,1.703l-3.69-1.048
		L201.694,408.503z M196.141,401.579l-7.569,25.429l6.929,2.074l3.143-10.345l1.904,0.613c4.391,1.093,4.512,6.326,5.94,12.646
		l7.751,1.601c-1.664-8.562-2.128-11.272-4.688-13.352c3.61-0.438,6.289-2.013,7.105-4.802c1.085-3.831-1.274-8.281-6.922-9.988
		L196.141,401.579z M249.536,415.174c0,0-2.928,0-5.53-0.086c-2.951-0.099-5.636-0.316-5.636-0.316l-1.92,21.48l-7.217-0.53
		l1.93-21.544c0,0-3.86-0.332-5.917-0.706c-2.349-0.275-5.005-0.748-5.005-0.748l0.65-4.84c3.94,0.735,9.038,1.46,14.552,1.898
		c4.983,0.479,9.528,0.677,14.232,0.591L249.536,415.174z M282.058,407.414l2.103,15.336c0.736,8.748-6.215,12.7-14.139,13.47
		c-8.462,0.697-15.285-2.559-16.043-10.598l-0.419-15.25l7.271-0.326l0.73,14.946c0.362,3.754,3.364,6.106,7.863,5.77
		c3.789-0.339,7.716-2.524,7.246-7.189l-1.847-14.956L282.058,407.414z M317.144,404.777c-4.01-0.319-7.639,0.032-10.99,1.285
		c-7.45,2.505-10.276,8.115-8.967,11.837c1.517,4.425,7.962,5.45,13.697,3.543c1.671-0.61,2.42-1.032,4.18-2.511l-1.002-2.895
		l-4.013,1.406l-1.488-4.684l10.702-3.674l3.594,10.176c-1.335,2.62-5.969,5.773-10.34,7.374
		c-9.566,3.348-19.855,0.879-22.457-6.575c-2.605-7.598,3.904-15.601,13.678-19.052c4.1-1.403,8.455-1.911,11.541-1.655
		L317.144,404.777z M343.841,399.944l-9.025,5.732l-0.963-12.026L343.841,399.944z M334.775,386.18l-7.172,4.463l1.626,29.078
		l6.746-3.303l-0.451-5.898l12.545-7.697l4.785,3.24l6.103-4.483L334.775,386.18z M379.702,380.435c0,0-3.895,5.106-7.995,9.47
		c-4.029,4.428-8.193,7.911-8.193,7.911l-18.344-19.349l5.108-4.984l14.965,15.834c0,0,1.014-0.824,4.864-4.927
		c3.7-4.083,5.844-6.936,5.844-6.936L379.702,380.435z"/>
	<path fill="#FFFFFF" d="M149.459,144.722c-5.3,3.336-8.9,6.741-16.472,13.659l20.924,25.27l6.772-6.08l-7.585-9.569l6.698-5.61
		c6.433-5.3,6.353-12.093,3.738-15.831C160.628,142.435,155.012,141.217,149.459,144.722 M144.159,157.339l3.415-2.901
		c4.081-3.482,6.602-4.214,8.308-2.294c2.196,2.294,0.189,5.275-2.445,7.422l-4.49,3.863L144.159,157.339z"/>
	<path fill="#FFFFFF" d="M211.953,134.703c-2.81-9.477-13.077-14.154-26.675-8.349c-13.016,5.543-17.144,15.183-14.994,23.116
		c2.343,8.563,11.118,15.128,26.294,9.215C209.732,153.624,214.376,142.742,211.953,134.703 M203.072,138.144
		c1.859,5.419-2.564,11.579-8.766,14.055c-7.537,2.978-13.864,0.313-15.455-5.617c-1.61-5.716,3.248-11.496,8.35-13.566
		C194.988,129.917,201.043,132.163,203.072,138.144"/>
	<path fill="#FFFFFF" d="M218.161,118.367l3.757,32.892l9.051-1.22l-1.45-12.854l2.816-0.3c4.89-0.46,7.985,5.4,12.584,12.106
		l10.58,0.045c-5.879-9.227-9.819-15.726-13.118-15.125c3.367-0.661,8.091-4.09,7.604-9.32c-0.877-8.074-8.532-8.509-15.25-8.074
		C228.191,116.801,218.161,118.367,218.161,118.367 M228.031,123.124l5.066-0.54c3.3-0.31,6.782-0.31,7.3,2.991
		c0.538,3.799-3.255,4.981-6.372,5.144l-5.185,0.543L228.031,123.124z"/>
	<path fill="#FFFFFF" d="M290.676,125.966c0,0-2.036-0.578-6.33-1.278c-4.305-0.828-6.698-1.096-6.698-1.096l-3.338,27.062
		l-9.009-1.048l3.344-27.263c0,0-1.462-0.195-6.637-0.518c-4.804-0.281-6.519-0.281-6.519-0.281l0.343-5.537
		c6.093,0.105,13.409,0.793,18.444,1.316c5.034,0.636,11.073,1.738,17.567,3.039L290.676,125.966"/>
	<polygon fill="#FFFFFF" points="299.605,156.615 290.897,154.136 299.871,122.276 308.662,124.806 	"/>
	<polygon fill="#FFFFFF" points="338.953,177.57 332.623,172.832 325.044,145.566 316.394,163.503 308.079,159.793 322.311,129.91 
		329.701,133.319 338.287,161.761 349.661,144.323 357.432,149.863 	"/>
	<path fill="#FFFFFF" d="M384.058,196.431c-1.069-5.371-3.949-11.754-6.779-15.741c-5.373-7.601-11.803-8.291-16.245-4.943
		c-3.607,2.661-5.002,9.259-1.024,15.873c1.245,1.946,4.119,5.374,6.423,7.013l3.751-2.02l-3.2-6.01l4.615-2.582l7.143,14.029
		l-10.581,5.467c-3.789-1.396-10.263-7.448-13.662-12.288c-7.306-10.377-6.711-21.608,1.411-27.301
		c8.257-5.761,18.953-2.269,26.525,8.265c3.501,4.674,6.65,11.576,7.831,15.688L384.058,196.431"/>
	<path fill="#FFFFFF" d="M129.105,173.576c-5.009,4.163-7.611,6.828-9.585,9.946c-1.997,3.166-2.343,5.738-1.04,6.614
		c3.844,2.799,14.101-15.889,23.673-9.905c4.945,3.106,4.945,10.419,0.048,18.346c-3.927,6.371-7.121,8.639-10.757,11.403
		l-5.885-3.607c5.77-3.575,8.692-6.275,11.201-10.189c2.115-3.466,2.042-6.237,0.419-7.208
		c-4.535-2.879-13.278,16.346-23.103,10.195c-4.826-2.872-5.22-9.63-0.099-17.947c2.544-4.016,5.438-7.355,9.729-10.972
		L129.105,173.576"/>
	<path fill="#008458" d="M250.859,399.658c0,0,98.203-28.257,98.203-125.542c0-57.127-14.146-77.543-14.146-77.543
		s-21.41,1.802-39.284-8.559c-22.294-12.978-44.773-12.461-44.773-12.461s-22.425-0.518-44.764,12.461
		c-17.976,10.362-39.275,8.559-39.275,8.559s-14.187,20.416-14.187,77.543C152.694,371.401,250.859,399.658,250.859,399.658"/>
	<path fill="#FFFFFF" d="M250.859,394.107c0,0,93.246-27.001,93.246-119.26c0.08-54.395-13.39-73.683-13.39-73.683
		s-20.3,1.687-37.3-8.234c-21.241-12.272-42.555-11.706-42.555-11.706s-21.305-0.566-42.53,11.706
		c-17.042,9.92-37.323,8.234-37.323,8.234s-13.403,19.288-13.403,73.683C157.603,367.106,250.859,394.107,250.859,394.107"/>
	<path fill="#008458" d="M250.859,388.494c0,0,88.388-25.448,88.388-112.912c0-51.539-12.75-69.888-12.75-69.888
		s-19.103,1.613-35.335-7.697c-20.114-11.662-40.302-11.179-40.302-11.179s-20.191-0.482-40.241,11.179
		c-16.197,9.31-35.425,7.697-35.425,7.697s-12.738,18.349-12.738,69.888C162.593,363.046,250.859,388.494,250.859,388.494"/>
	<path fill="#FDB927" d="M216.133,223.218c0,0,3.485,1.834,7.886,2.01c5.901,0.313,17.208-4.799,21.423-0.856
		c-0.8-0.182-4.877-0.984-10.5,1.054c-4.893,1.802-8.388,2.598-11.086,2.598C216.984,228.023,215.717,222.684,216.133,223.218"/>
	<path fill="#FDB927" d="M282.147,225.292c-0.307-5.783-5.009-7.655-8.007-7.585c-2.996,0-4.9,2.086-4.9,2.086
		c0.077-0.345-0.618-3.968,3.763-4.882c3.777-0.988,7.271,1.585,7.806,1.872c0.061-0.706,0.298-5.224-7.057-5.805
		c-3.584-0.335-8.743,0.968-10.315-0.856c0,0,2.957,0,5.185-0.987c2.167-1.103,3.939-2.984,3.939-2.984
		c-4.666,1.495-11.275-1.911-15.358-2.067c-5.594-0.172-6.737,2.335-6.737,2.335c-1.568-0.878-4.785-1.099-6.007-1.099
		c-0.938-0.07-5.834-0.204-5.834,2.713c0,4.365,12.817,1.853,13.154,1.831c0,0-0.112,1.275-5.258,2.438
		c-2.061,0.428-2.922,1.348-3.341,2.463c0.141-0.323-0.202-0.991-0.608-1.524c-0.842-1.128-2.301-2.262-6.929-2.102
		c-1.511,0.054-6.922,1.042-6.922,3.303c0,2.125,4.285,1.147,4.285,1.147s0.087,0.431-1.415,1.004
		c-0.967,0.396-1.543,1.003-1.751,1.872c-0.406,2.227,2.285,4.128,2.285,4.128s1.795-3.706,7.754-3.706
		c6.321,0,9.351,3.498,9.14,6.406c-0.128,1.604-1.421,3.684-5.94,3.828c-4.481,0.191-7.806-0.975-7.806-0.975
		s-0.861,2.262,0.666,3.578c2.186,1.955,3.153,3.38,3.101,5.633c0,0,2.688-4.454,6.33-5.083c1.635-0.227,3.959,0.099,3.92,2.077
		c-0.134,3.965-8.145,5.268-9.739,5.725c-6.942,1.687-9.105,3.732-9.383,5.556c1.671-0.652,3.351-0.764,6.007-0.652
		c4.564,0.217,6.65-2.307,6.65-2.307c0.352,3.3-6.43,5.419-12.658,7.508c-8.331,3-9.796,8.237-10.075,10.988
		c0,0-15.186,10.799-22.774,10.537c-6.791-0.281-6.106-4.269-11.057-4.186c-5.287,0-5.972,4.741-5.972,4.741
		s1.536-0.837,4.301-0.761c2.298,0.205,3.194,1,3.636,1.745c0,0-5.217-0.745-8.123,1.482c-3.876,2.927-1.031,7.026-1.031,7.026
		s1.031-1.978,3.937-2.956c3.072-1.144,5.69-0.281,5.69-0.281c-0.473,0.153-5.303,0.773-6.602,4.297
		c-1.024,2.831,1.591,4.885,2.4,5.17c0,0,2.701-5.818,11.95-7.614c8.903-1.7,15.503,1.872,15.503,1.872
		c-0.493-1.665-1.779-2.837-2.208-3.195c-1.45-1.323-3.258-1.86-3.258-1.86s0.429-1.335,2.656-1.502
		c5.53-0.377,6.823,4.585,13.381,5.048c3.901,0.3,6.429-1.936,6.429-1.936s-2.285,0.978-5.412-2.482
		c-2.791-3.154-6.446-2.61-6.446-2.61s2.259-1.914,5.722-1.738c4.887,0.294,7.678,5.026,11.313,5.936
		c3.994,0.895,5.639,0.051,5.639,0.051c-0.186,0.246-0.423,1.16-2.631,2.217c-0.688,0.406-2.464,0.562-3.098,0.562
		c0,0,0.598,7.016,21.353,12.272c6.878,1.732,7.742,3.303,7.45,5.927c-0.55,4.617-6.452,6.514-6.785,15.154
		c-0.317,8.802,6.65,11.106,8.235,14.898c1.6,3.879-0.666,6.936-0.666,6.936c2.231,0.508,3.815-1.661,5.409-2.572
		c2.979-1.62,5.85,0.166,5.229,4.866c-0.515,4.156-4.688,15.119-9.745,14.946c-3.629-0.144-3.236-0.812-6.679-0.892
		c-3.232-0.076-3.693,2.428-3.744,3.447c-0.121,1.824,1.466,4.355,1.466,4.355s0.656-1.45,2.995-2.176
		c1.735-0.569,3.101-0.514,4.577-0.514c0,0-4.388,2.336-4.708,5.917c-0.279,2.588,1.021,3.454,1.021,3.454s0.957-1.418,3.495-1.824
		c2.8-0.45,4.644-1.252,7.642-5.141c0,0,0.957,0.534-0.563,3.46c-1.274,2.562,0,4.367,0,4.367s1.021-1.182,2.279-1.751
		c1.927-0.866,5.309-1.207,5.722-3.86c0.454-2.585-3.2-4.7-1.245-9.39c1.53-3.777,4.327-4.687,6.561-5.856
		c4.244-2.153,3.94-3.521,3.94-3.521c-1.421,0.703-2.935-0.08-4.861,0c-1.61,0.15-2.643,1.218-2.643,1.218s0-3.246,3.565-5.917
		c3.78-2.844,9.457-3.112,12.293-7.467c2.695-4.141,0.307-6.479,0.307-6.479c-0.071,1.048-1.2,2.543-5.044,4.153
		c-3.616,1.559-4.977,2.777-6.001,4.17c0,0-0.435-7.828,8.129-10.933c9.751-3.572,6.903-8.473,6.474-9.157
		c0,0-1.895,3.335-5.764,3.399c-5.687,0.144-5.975-7.058-6.039-7.083c1.981,1.125,4.858,1.352,8.244,0.671
		c5.409-1.166,7.038-4.278,7.38-5.904c-0.371,0.217-4.986,4.01-7.45,1.709c0,0,9.508-2.17,9.828-13.02
		c0.458-12.406-9.23-18.867-14.146-31.947c-1.805-4.863-4.378-19.106,7.412-21.467c1.907-0.255,3.597,0.211,3.191,0
		c0,0-2.864,7.138,5.239,7.757c7.607,0.633,11.038-2.974,11.038-2.974s-3.453,0.901-6.81,0.057
		c-3.543-0.971-3.117-3.144-3.117-3.144s2.868,1.463,5.802,1.703c5.13,0.339,7.044-2.214,7.217-2.847c0,0-2.573,0.799-5.002,0.54
		c-4.151-0.54-4.055-2.47-4.055-2.47s2.691,1.003,6.199,0.364c5.101-0.85,5.905-3.93,5.687-4.917c0,0-1.223,2.885-7.351,1.85
		c-3.268-0.594-3.543-1.278-7.05-1.425c-3.53-0.262-6.375,2.46-6.631,3.224c0,0-1.971-0.316-4.356-0.134
		c-2.423,0.259-12.433,2.936-12.088,16.768c0.307,13.984,13.829,29.48,13.464,39.781c-0.413,7.202-5.521,9.036-7.879,9.301
		c-5.009,0.278-11.493-2.179-17.423-16.416c-3.248-7.805-4.343-15.784-3.786-23.627c0,0-1.863,0.888-2.608,3.773
		c-0.55,2.003-0.349,3.303,0,4.61c0,0-3.834-1.367-3.421-6.965c0.499-6.029,2.109-7.646,2.528-12.569
		c0.256-3.767-2.007-6.825-2.007-6.825s5.021,0.598,6.017,7.093c1.667,11.218,6.186,10.272,6.263,10.272
		c-2.986-4.591-1.101-11.534-2.035-17.365c-1.45-8.917-7.623-6.936-7.828-6.936c0,0,1.034-3.154,4.141-3.154
		c2.314,0,4.365,2.259,6.372,7.112c1.843,4.7,4.509,3.847,4.509,3.847c-2.33-2.613-1.623-7.01-3.053-10.901
		c-3.517-9.365-10.216-7.448-10.379-7.448c0.163-0.383,0.794-3.134,4.343-3.172c2.519-0.096,4.852,1.78,6.18,5.029
		c1.322,2.984,3.485,2.53,3.485,2.53C282.854,230.574,282.39,230.216,282.147,225.292"/>
	<path fill="#FDB927" d="M192.714,220.756c0.08-0.067,3.751-1.99,6.637,1.32c2.272,2.716,2.522,10.725,9.537,14.694
		c10.328,6.035,20.546,5.128,20.546,5.128c-4.516,2.703-5.303,5.502-8.388,8.534c-7.274,7.064-13.736,4.77-14.158,4.173
		c0,0,1.77-0.39,3.636-2.029c1.747-1.674,2.436-2.645,4.244-3.872c2.035-1.406,3.818-1.546,3.818-1.546s-0.934-1.23-3.914-0.345
		c-3.223,1.01-4.49,3.783-9.191,3.936c-4.593,0.182-5.709-1.284-5.709-1.284s1.008,0.22,2.884-0.566
		c1.517-0.738,2.627-2.272,3.994-3.266c1.939-1.409,4.151-1.217,4.151-1.217s-1.075-1.361-3.488-1.361
		c-4.016,0.103-4.34,1.904-7.502,1.17c0,0,1.562-1.639,1.6-3.518c0.061-1.677-1.072-6.003-10.161-6.463
		c-5.386-0.236-8.119-3.316-8.728-4.055c-0.851-0.875-1.808-1.31-2.621-1.454c1.075-1.815,4.609-2.418,8.043-0.54
		c1.965,1.119,2.9,1.119,2.9,1.119c-0.506-1.119-2.72-3.617-4.893-4.087c-1.514-0.294-2.256-0.172-3.607,0.204
		c0,0,1.351-3.86,5.671-3.987c4.381-0.268,7.159,3.527,8.129,5.291c0,0,0.105-1.377-0.909-3.348
		C194.647,222.312,193.313,221.13,192.714,220.756"/>
	<path fill="#FDB927" d="M248.293,292.999c-3.306,2.083-7.147,0.866-13.55,1.266c-7.351,0.415-9.147,5.923-9.147,8.629
		c0.067,5.47,4.497,7.872,4.173,11.684c-0.256,4.524-7.38,7.866-12.216,7.403c-4.736-0.438-7.665-4.914-12.11-4.713
		c-5.104,0.179-5.377,4.425-5.377,4.425s1.808-0.735,3.904-0.406c2.644,0.339,2.944,2.406,3.178,3.029c0,0-5.274-2.268-8.948,0.601
		c-3.552,2.789-0.934,7.415-1.107,7.134c0,0,1.107-2.006,3.45-2.856c2.804-0.885,4.938-0.409,4.938-0.409s-2.183,0.971-3.607,2.681
		c-1.645,1.885-1.424,3.956-1.424,3.956c2.157-1.633,3.716-0.396,5.914-0.22c4.938,0.492,5.351-5.445,11.729-6.358
		c6.922-0.844,12.081,2.099,12.081,2.099s0.051-1.796-1.568-3.208c-1.591-1.339-3.463-1.339-3.463-1.339s1.731-1.169,4-1.083
		c4.183,0.058,6.295,2.326,10.635,2.508c4.884,0.307,7.591-2.406,7.591-2.406s-2.708,0.083-5.479-1.949
		c-2.852-2.06-6.25-1.022-6.25-1.022s1.05-3.7,6.545-3.674c5.585,0.109,10.833,3.023,10.833,3.023s-3.098-3.498-1.578-10.378
		c1.357-6.629,6.103-9.722,6.103-9.722s-3.732-0.243-7.207,1.508c-3.975,1.923-5.361,3.946-5.361,3.946s-0.224-2.709,2.9-5.531
		c3.565-3.153,5.53-3.518,5.53-3.518c-1.075-0.268-4.25,0-8.43,1.112c-5.386,1.476-7.441,3.019-7.441,3.019s-0.247-3.224,4.97-4.936
		C249.109,295.083,248.293,292.999,248.293,292.999"/>
	<path fill="#008458" d="M220.818,263.995c0,0,1.779-5.441,8.417-6.777c7.819-1.575,8.884-3.227,10.645-5.537
		c0,0,0.864,6.038-6.433,8.805c-4.212,1.626-6.145,1.089-9.179,1.789C221.919,262.911,220.818,263.995,220.818,263.995"/>
	<path fill="#008458" d="M231.497,267.576c0,0-0.198-3.645,9.246-6.693c10.443-3.249,9.038-8.722,9.038-8.722
		c1.434,1.831,2.285,8.981-5.217,12.24c-2.807,1.243-5.94,0.914-9.124,1.562C234.275,266.181,233.097,266.42,231.497,267.576"/>
	<path fill="#008458" d="M245.349,270.934c0,0-0.698-2.339,2.083-4.399c4.266-3.07,8.663-3.144,11.118-7.703
		c1.495-3.003,1.472-5.265,1.072-6.562c0,0,0.653,0.255,1.571,2.268c0.73,1.543,1.946,7.202-1.571,10.384
		c-2.557,2.281-6.9,2.968-10.084,3.684C247.605,269.119,246.347,269.966,245.349,270.934"/>
	<path fill="#008458" d="M230.541,271.714c0,0,1.543-1.53,4.128-1.428c4.551,0.089,6.366,3.339,8.772,4.294
		c1.479,0.578,2.24,0.377,2.24,0.377c-0.355,0.409-1.168,1.326-3.3,1.093c-4.052-0.319-6.263-3.604-8.779-4.294
		C231.741,271.196,230.541,271.714,230.541,271.714"/>
	<path fill="#008458" d="M238.12,282.088c0,0,4.701,1.761,10.023,1.578c3.921-0.156,8.251-1.578,11.301-3.393
		c0,0-3.399,4.956-10.923,5.425c-6.801,0.498-10.446-3.61-10.446-3.61"/>
	<path fill="#008458" d="M248.421,287.464c0,0,5.137,1.135,8.702,0.946c4.41-0.214,7.015-0.767,9.271-1.703
		c0,0-2.41,3.351-9.143,3.636C250.959,290.691,248.421,287.464,248.421,287.464"/>
	<path fill="#008458" d="M265.395,302.868c0,0-5.351,5.585-5.102,11.323c0.214,4.217,2.237,6.179,4.388,9.69
		c1.386,2.096,1.642,3.825,1.642,3.825c1.267-2.719-1.917-7.534-3.005-11.726C262.05,310.45,265.395,302.868,265.395,302.868"/>
	<path fill="#008458" d="M181.829,31.877c-12.817,1.167-20.082,2.489-26.585,5.333c-6.814,2.972-10.421,6.671-9.163,9.607
		c3.78,8.722,41.774-10.505,50.451,9.809c4.839,11.112-4.781,22.899-21.862,30.202c-13.387,5.825-21.231,5.927-30.099,6.3
		l-5.412-12.563c13.397,0.821,21.001-0.044,29.44-3.658c7.335-3.234,10.449-6.796,8.964-10.25
		c-4.077-9.505-41.675,10.639-50.633-10.128c-4.317-10.045,4.199-21.589,22.063-29.238c8.503-3.709,16.904-5.706,27.949-6.687
		L181.829,31.877"/>
	<path fill="#008458" d="M288.282,65.891c-11.678,4.598-20.454,6.33-32.794,6.403c-32.468,0-48.642-15.822-48.7-32.113
		c-0.093-16.92,18.13-32.669,50.035-32.819c11.665,0,22.124,1.824,30.288,5.473l0.038,14.08c-9.182-3.837-18.505-6.374-28.784-6.374
		c-17.746,0.055-30.173,8.032-30.173,19.228c0.048,11.32,12.427,19.298,29.786,19.298c10.891,0,18.239-2.594,30.237-7.051
		L288.282,65.891"/>
	<path fill="#008458" d="M321.924,17.569l-19.458,59.466l18.386,5.898l7.815-23.867l16.738,5.572
		c18.143,5.853,29.123-1.157,31.875-9.531c2.643-8.147-2.365-20.311-20.338-26.154L321.924,17.569 M336.687,34.366l8.167,2.725
		c10.635,3.495,15.544,6.748,13.928,11.777c-1.45,4.55-7.22,5.626-16.258,2.748l-10.366-3.438L336.687,34.366z"/>
</g>
</svg>
