<svg version="1.1" xmlns="http://www.w3.org/2000/svg" xmlns:xlink="http://www.w3.org/1999/xlink" width="250" height="312.06" viewBox="0 0 250.01314 312.0625">
<title>Villareal CF</title>
<path d="m124.82,0.36385c4.208,0,7.6947,3.4868,7.6947,7.7903,0,1.2705-0.30569,2.4694-0.84542,3.5297l0.47764-0.0143c4.2987,0,7.7855,3.4868,7.7855,7.7855,0,4.3035-3.4868,7.7903-7.7855,7.7903-1.5953,0-2.9996-0.51107-4.2844-1.3278,0.0525,8.8697,7.1407,16.01,15.948,16.01,7.518,0,13.823-5.2015,15.504-12.204-1.175,0.363-2.8037,0.51107-4.1507,0.2006-4.1889-0.9696-6.8016-5.1489-5.832-9.3378,0.96483-4.1936,5.1442-6.8063,9.3378-5.8367l0.2627,0.0621c-0.28658-1.1511-0.31524-2.3834-0.0287-3.6205,0.9696-4.1889,5.1489-6.8016,9.3426-5.832,4.1889,0.96483,6.8016,5.1489,5.832,9.3378-0.28181,1.2371-0.8502,2.3404-1.6144,3.2527l0.4633,0.0908c4.1937,0.9696,6.8063,5.1489,5.8367,9.3378-0.96483,4.1936-5.1489,6.8063-9.3378,5.8367-1.3469-0.31046-2.5267-0.95049-3.482-1.815l-0.0764,0.25315c-1.9822,8.5784,3.3435,17.243,11.95,19.125,7.475,1.6335,12.251-0.50152,14.759-3.0139-1.2514-0.22449-2.5697-0.77377-3.6682-1.6956-3.2957-2.7655-3.7256-7.6804-0.96005-10.971,2.7655-3.2957,7.6804-3.7256,10.971-0.96005l2.0013,1.8485c2.7273-4.7764,3.1238-5.5692,4.5137-7.6804,2.3595-3.5966,5.9657-2.5745,9.7963-0.13374l5.9657,4.1172-11.21,11.659c0.3248,0.72123,0.40122,1.495,0.40122,2.3022,0,3.7924-3.0712,6.8636-6.8636,6.8636-1.0986,0-2.1207-0.0525-3.0426-0.51585-6.472,5.4355-15.447,7.8619-24.369,5.8033-7.4082-1.7099-13.45-6.195-17.29-12.099l0.25793-0.32957c-5.9609,3.4533-13.231,4.7382-20.476,3.0664-5.4928-1.2657-10.236-4.0647-13.785-7.8332-3.5536,3.7686-8.2966,6.5675-13.789,7.8332-7.2458,1.6717-14.41,0.76422-20.371-2.6891l-0.09553,0.19106c-3.8354,5.9084-9.6339,10.15-17.042,11.86-8.9223,2.0586-17.897-0.36778-24.369-5.8033-0.92184,0.46331-1.9392,0.51585-3.0426,0.51585-3.7877,0-6.8589-3.0712-6.8589-6.8636,0-0.80721,0.07165-1.581,0.39644-2.3022l-11.205-11.659,5.9657-4.1172c3.8259-2.4407,7.432-3.4629,9.7963,0.13374,1.3851,2.1112,1.7816,2.904,4.5089,7.6804l2.0013-1.8485c3.2957-2.7655,8.2058-2.3356,10.971,0.96005,2.7655,3.2909,2.3356,8.2058-0.96005,10.971-1.0986,0.92184-2.4121,1.4711-3.6683,1.6956,2.5124,2.5124,7.2887,4.6474,14.764,3.0139,8.6022-1.8819,13.928-10.546,11.946-19.125l-0.07642-0.25315c-0.9505,0.86453-2.135,1.5046-3.482,1.815-4.1889,0.96961-8.3682-1.6431-9.3378-5.8367-0.96483-4.1889,1.6478-8.3682,5.8367-9.3378l0.46331-0.0908c-0.76422-0.91228-1.3278-2.0156-1.6144-3.2527-0.9696-4.1889,1.6431-8.373,5.8367-9.3378,4.1889-0.9696,8.373,1.6431,9.3378,5.832,0.28658,1.2371,0.25792,2.4694-0.02388,3.6205l0.25792-0.0621c4.1937-0.96961,8.373,1.6431,9.3426,5.8367,0.9696,4.1889-1.6478,8.3682-5.8367,9.3378-1.3469,0.31047-2.9757,0.1624-4.1507-0.2006,1.6861,7.0022,7.9861,12.204,15.509,12.204,8.8028,0,15.891-7.1407,15.944-16.01-1.2848,0.81676-2.6891,1.3278-4.2796,1.3278-4.3035,0-7.7903-3.4868-7.7903-7.7903,0-4.2987,3.4868-7.7855,7.7903-7.7855l0.47286,0.0143c-0.53973-1.0604-0.84542-2.2592-0.84542-3.5297,0-4.3035,3.4868-7.7903,7.6995-7.7903z" fill-rule="evenodd" clip-rule="evenodd" fill="#ffe667"/>
<path d="m124.82,0.36385c4.208,0,7.6947,3.4868,7.6947,7.7903,0,1.2705-0.30569,2.4694-0.84542,3.5297l0.47764-0.0143c4.2987,0,7.7855,3.4868,7.7855,7.7855,0,4.3035-3.4868,7.7903-7.7855,7.7903-1.5953,0-2.9996-0.51107-4.2844-1.3278,0.0525,8.8697,7.1407,16.01,15.948,16.01,7.518,0,13.823-5.2015,15.504-12.204-1.175,0.363-2.8037,0.51107-4.1507,0.2006-4.1889-0.9696-6.8016-5.1489-5.832-9.3378,0.96483-4.1936,5.1442-6.8063,9.3378-5.8367l0.2627,0.0621c-0.28658-1.1511-0.31524-2.3834-0.0287-3.6205,0.9696-4.1889,5.1489-6.8016,9.3426-5.832,4.1889,0.96483,6.8016,5.1489,5.832,9.3378-0.28181,1.2371-0.8502,2.3404-1.6144,3.2527l0.4633,0.0908c4.1937,0.9696,6.8063,5.1489,5.8367,9.3378-0.96483,4.1936-5.1489,6.8063-9.3378,5.8367-1.3469-0.31046-2.5267-0.95049-3.482-1.815l-0.0764,0.25315c-1.9822,8.5784,3.3435,17.243,11.95,19.125,7.475,1.6335,12.251-0.50152,14.759-3.0139-1.2514-0.22449-2.5697-0.77377-3.6682-1.6956-3.2957-2.7655-3.7256-7.6804-0.96005-10.971,2.7655-3.2957,7.6804-3.7256,10.971-0.96005l2.0013,1.8485c2.7273-4.7764,3.1238-5.5692,4.5137-7.6804,2.3595-3.5966,5.9657-2.5745,9.7963-0.13374l5.9657,4.1172-11.21,11.659c0.3248,0.72123,0.40122,1.495,0.40122,2.3022,0,3.7924-3.0712,6.8636-6.8636,6.8636-1.0986,0-2.1207-0.0525-3.0426-0.51585-6.472,5.4355-15.447,7.8619-24.369,5.8033-7.4082-1.7099-13.45-6.195-17.29-12.099l0.25793-0.32957c-5.9609,3.4533-13.231,4.7382-20.476,3.0664-5.4928-1.2657-10.236-4.0647-13.785-7.8332-3.5536,3.7686-8.2966,6.5675-13.789,7.8332-7.2458,1.6717-14.41,0.76422-20.371-2.6891l-0.09553,0.19106c-3.8354,5.9084-9.6339,10.15-17.042,11.86-8.9223,2.0586-17.897-0.36778-24.369-5.8033-0.92184,0.46331-1.9392,0.51585-3.0426,0.51585-3.7877,0-6.8589-3.0712-6.8589-6.8636,0-0.80721,0.07165-1.581,0.39644-2.3022l-11.205-11.659,5.9657-4.1172c3.8259-2.4407,7.432-3.4629,9.7963,0.13374,1.3851,2.1112,1.7816,2.904,4.5089,7.6804l2.0013-1.8485c3.2957-2.7655,8.2058-2.3356,10.971,0.96005,2.7655,3.2909,2.3356,8.2058-0.96005,10.971-1.0986,0.92184-2.4121,1.4711-3.6683,1.6956,2.5124,2.5124,7.2887,4.6474,14.764,3.0139,8.6022-1.8819,13.928-10.546,11.946-19.125l-0.07642-0.25315c-0.9505,0.86453-2.135,1.5046-3.482,1.815-4.1889,0.96961-8.3682-1.6431-9.3378-5.8367-0.96483-4.1889,1.6478-8.3682,5.8367-9.3378l0.46331-0.0908c-0.76422-0.91228-1.3278-2.0156-1.6144-3.2527-0.9696-4.1889,1.6431-8.373,5.8367-9.3378,4.1889-0.9696,8.373,1.6431,9.3378,5.832,0.28658,1.2371,0.25792,2.4694-0.02388,3.6205l0.25792-0.0621c4.1937-0.96961,8.373,1.6431,9.3426,5.8367,0.9696,4.1889-1.6478,8.3682-5.8367,9.3378-1.3469,0.31047-2.9757,0.1624-4.1507-0.2006,1.6861,7.0022,7.9861,12.204,15.509,12.204,8.8028,0,15.891-7.1407,15.944-16.01-1.2848,0.81676-2.6891,1.3278-4.2796,1.3278-4.3035,0-7.7903-3.4868-7.7903-7.7903,0-4.2987,3.4868-7.7855,7.7903-7.7855l0.47286,0.0143c-0.53973-1.0604-0.84542-2.2592-0.84542-3.5297,0-4.3035,3.4868-7.7903,7.6995-7.7903z" stroke="#005187" stroke-miterlimit="3.86400008" stroke-width="0.73078465" fill="none"/>
<circle cy="191.76" transform="matrix(4.7763705,0,0,4.7763705,-193.74153,-739.7969)" cx="66.734" r="26.094" fill="#FFF"/>
<circle cx="66.734" stroke="#005187" transform="matrix(4.7763705,0,0,4.7763705,-193.74153,-739.7969)" cy="191.76" r="26.094" stroke-miterlimit="3.864" stroke-width="0.153" fill="none"/>
<path fill="#005187" d="m4.9746,176.77c0-66.105,53.586-119.7,119.7-119.7,66.11,0,119.7,53.591,119.7,119.7,0,66.11-53.591,119.7-119.7,119.7-66.11,0-119.7-53.591-119.7-119.7"/>
<path fill="#FFF" d="m144.15,65.265,26.733,34.925,28.653,0.11463v20.242h-13.039l41.612,55.688-89.901,121.7-26.781,0.0716-89.972-122.01,42.309-55.669h-14.458v-20.295l29.594-0.0573,26.452-34.853s10.341-1.3517,19.12-1.3517c7.3031,0,19.683,1.495,19.683,1.495"/>
<path fill="#ffe667" d="m89.125,89.61c-12.103-0.20538-22.712-6.8684-28.286-16.684-0.50152-0.90274-0.67824-1.987-0.67824-3.0903,0-2.4503,1.3613-4.5662,3.4963-5.5979,18.571-8.5019,39.224-13.24,60.98-13.24,21.331,0,41.507,4.5567,59.877,12.743l-0.11941,0.01c2.0825,0.99348,3.6492,3.1667,3.6492,5.6982,0,1.1702-0.50152,2.6366-1.0604,3.5727-5.832,9.9253-16.579,16.593-28.878,16.593-1.5189,0-4.122,0.0478-4.122,0.0478l-64.858-0.0525"/>
<g transform="matrix(4.7763705,0,0,4.7763705,-193.74153,-739.7969)">
<defs>
<path id="SVGID_1_" d="m59.222,173.65c-2.534-0.043-4.755-1.438-5.922-3.493-0.105-0.189-0.142-0.416-0.142-0.647,0-0.513,0.285-0.956,0.732-1.172,3.888-1.78,8.212-2.772,12.767-2.772,4.466,0,8.69,0.954,12.536,2.668l-0.025,0.002c0.436,0.208,0.764,0.663,0.764,1.193,0,0.245-0.105,0.552-0.222,0.748-1.221,2.078-3.471,3.474-6.046,3.474-0.318,0-0.863,0.01-0.863,0.01l-13.579-0.011"/>
</defs>
<clipPath id="SVGID_2_">
<use xlink:href="#SVGID_1_" height="842" width="595" y="0" x="0" overflow="visible"/>
</clipPath>
<circle d="m 92.144001,194.39999 c 0,14.15672 -11.476285,25.633 -25.632999,25.633 -14.156715,0 -25.633,-11.47628 -25.633,-25.633 0,-14.15671 11.476285,-25.633 25.633,-25.633 14.156714,0 25.632999,11.47629 25.632999,25.633 z" clip-path="url(#SVGID_2_)" cx="66.511" cy="194.4" r="25.633"/>
<circle d="m 92.144001,194.39999 c 0,14.15672 -11.476285,25.633 -25.632999,25.633 -14.156715,0 -25.633,-11.47628 -25.633,-25.633 0,-14.15671 11.476285,-25.633 25.633,-25.633 14.156714,0 25.632999,11.47629 25.632999,25.633 z" clip-path="url(#SVGID_2_)" cx="66.511" stroke="#000" cy="194.4" r="25.633" stroke-miterlimit="3.864" stroke-width="0.296" fill="none"/>
<path fill="#ffe667" d="m52.776,168.5c0.19,0.173-1.178,1.628,0.302,2.774,2.153,1.667,2.183-2.417,13.719-2.417,7.907,0,11.016,2.619,11.016,2.619l-1.324,0.334-1.194,0.096,0.287-0.86-0.382-0.525-0.525,0.621-0.335,0.048-0.286-0.895-0.382,0.799-0.909,0.435,1.428,2c2.863-0.155,6.119-2.824,6.119-4.076,0-2.181-7.231-4.174-13.663-4.174-6.097,0-14.061,3.047-13.871,3.221z" clip-path="url(#SVGID_2_)"/>
<path d="m52.776,168.5c0.19,0.173-1.178,1.628,0.302,2.774,2.153,1.667,2.183-2.417,13.719-2.417,7.907,0,11.016,2.619,11.016,2.619l-1.324,0.334-1.194,0.096,0.287-0.86-0.382-0.525-0.525,0.621-0.335,0.048-0.286-0.895-0.382,0.799-0.909,0.435,1.428,2c2.863-0.155,6.119-2.824,6.119-4.076,0-2.181-7.231-4.174-13.663-4.174-6.097,0-14.061,3.047-13.871,3.221z" clip-path="url(#SVGID_2_)" stroke="#000" stroke-miterlimit="3.86400008" stroke-width="0.083" fill="none"/>
</g>
<path d="m89.125,89.61c-12.103-0.20538-22.712-6.8684-28.286-16.684-0.50152-0.90274-0.67824-1.987-0.67824-3.0903,0-2.4503,1.3613-4.5662,3.4963-5.5979,18.571-8.5019,39.224-13.24,60.98-13.24,21.331,0,41.507,4.5567,59.877,12.743l-0.11941,0.01c2.0825,0.99348,3.6492,3.1667,3.6492,5.6982,0,1.1702-0.50152,2.6366-1.0604,3.5727-5.832,9.9253-16.579,16.593-28.878,16.593-1.5189,0-4.122,0.0478-4.122,0.0478l-64.858-0.0525z" stroke="#000" stroke-miterlimit="3.86400008" stroke-width="0.73078465" fill="none"/>
<path fill="#ffe667" d="M143.69,68.828,224.89,176.15,124.96,311.45,25.021,175.92,106.16,68.69s10.006-1.3087,18.494-1.3087c7.0643,0,19.039,1.4472,19.039,1.4472"/>
<g transform="matrix(4.7763705,0,0,4.7763705,-193.74153,-739.7969)">
<defs>
<path id="SVGID_3_" d="m70.647,169.3,17,22.47-20.923,28.326-20.923-28.374,16.988-22.451s2.095-0.274,3.872-0.274c1.479,0,3.986,0.303,3.986,0.303"/>
</defs>
<clipPath id="SVGID_4_">
<use xlink:href="#SVGID_3_" height="842" width="595" y="0" x="0" overflow="visible"/>
</clipPath>
<polygon points="50.186,196.14,50.186,187.6,54.892,181.63,54.892,202" fill="#e70005" clip-path="url(#SVGID_4_)"/>
<polygon clip-path="url(#SVGID_4_)" stroke="#e70005" points="50.186,196.14,50.186,187.6,54.892,181.63,54.892,202" stroke-miterlimit="3.86400008" stroke-width="0.296" fill="none"/>
<polygon points="64.129,214.84,64.127,169.47,59.419,175.71,59.419,208.82" fill="#e70005" clip-path="url(#SVGID_4_)"/>
<polygon clip-path="url(#SVGID_4_)" stroke="#e70005" points="64.129,214.84,64.127,169.47,59.419,175.71,59.419,208.82" stroke-miterlimit="3.86400008" stroke-width="0.296" fill="none"/>
<polygon points="83.158,196.08,83.158,187.64,78.532,181.69,78.532,201.84" fill="#e70005" clip-path="url(#SVGID_4_)"/>
<polygon clip-path="url(#SVGID_4_)" stroke="#e70005" points="83.158,196.08,83.158,187.64,78.532,181.69,78.532,201.84" stroke-miterlimit="3.86400008" stroke-width="0.296" fill="none"/>
<polygon points="69.354,214.89,69.27,169.34,74.028,175.74,74.028,208.71" fill="#e70005" clip-path="url(#SVGID_4_)"/>
<polygon clip-path="url(#SVGID_4_)" stroke="#e70005" points="69.354,214.89,69.27,169.34,74.028,175.74,74.028,208.71" stroke-miterlimit="3.86400008" stroke-width="0.296" fill="none"/>
</g>
<path d="M143.69,68.828,224.89,176.15,124.96,311.45,25.021,175.92,106.16,68.69s10.006-1.3087,18.494-1.3087c7.0643,0,19.039,1.4472,19.039,1.4472z" stroke="#005187" stroke-miterlimit="3.86400008" stroke-width="0.73078465" fill="none"/>
<path fill="#e70005" d="m120.16,18.156c0-2.6652,2.1589-4.8241,4.8241-4.8241,2.6604,0,4.8194,2.1589,4.8194,4.8241,0,2.6604-2.1589,4.8241-4.8194,4.8241-2.6652,0-4.8241-2.1637-4.8241-4.8241"/>
<path fill="#e70005" d="m80.761,23.147c0-2.6604,2.1589-4.8194,4.8241-4.8194,2.6604,0,4.8241,2.1589,4.8241,4.8194,0,2.6652-2.1637,4.8241-4.8241,4.8241-2.6652,0-4.8241-2.1589-4.8241-4.8241"/>
<path fill="#e70005" d="m159.91,23.147c0-2.6604,2.1589-4.8194,4.8194-4.8194,2.6652,0,4.8241,2.1589,4.8241,4.8194,0,2.6652-2.1589,4.8241-4.8241,4.8241-2.6604,0-4.8194-2.1589-4.8194-4.8241"/>
<path fill="#e70005" d="m200.12,48.003c0-2.6604,2.1589-4.8194,4.8194-4.8194,2.6652,0,4.8241,2.1589,4.8241,4.8194,0,2.6652-2.1589,4.8241-4.8241,4.8241-2.6604,0-4.8194-2.1589-4.8194-4.8241"/>
<path fill="#e70005" d="m39.727,48.003c0-2.6604,2.1589-4.8194,4.8194-4.8194,2.6652,0,4.8241,2.1589,4.8241,4.8194,0,2.6652-2.1589,4.8241-4.8241,4.8241-2.6604,0-4.8194-2.1589-4.8194-4.8241"/>
<polyline points="66.656,166.18,64.274,167.1,66.66,168.18,69.055,167.12,66.656,166.18" fill="#e70005" transform="matrix(4.7763705,0,0,4.7763705,-193.74153,-739.7969)"/>
<polyline points="56.025,168.23,54.13,169.95,56.746,170.11,58.603,168.26,56.025,168.23" fill="#005187" transform="matrix(4.7763705,0,0,4.7763705,-193.74153,-739.7969)"/>
<polyline points="77.236,168.23,79.131,169.95,76.514,170.11,74.658,168.26,77.236,168.23" fill="#005187" transform="matrix(4.7763705,0,0,4.7763705,-193.74153,-739.7969)"/>
<path d="m88.036,148.3c-3.8068-2.3691-6.9735-3.2909-11.201-3.2909-15.538,0-26.843,13.551-26.843,32.107,0,17.496,11.516,31.314,26.103,31.314,4.3322,0,7.6088-0.92184,11.941-3.2909v-17.892c-2.7464,2.6318-5.4976,3.9453-8.5593,3.9453-7.0834,0-11.836-5.9179-11.836-14.606,0-8.158,4.9674-14.21,11.621-14.21,3.0664,0,5.4976,1.0556,8.7742,3.8163v-17.892"/>
<polyline points="82.419,188.21,82.419,185.41,74.948,185.41,74.948,198.49,78.332,198.49,78.332,193.11,82.047,193.11,82.047,190.31,78.332,190.31,78.332,188.21,82.419,188.21" transform="matrix(4.7763705,0,0,4.7763705,-193.74153,-739.7969)"/>
<polyline points="51.246,176.19,51.245,179.74,58.275,179.73,66.61,208.63,74.661,179.73,81.953,179.73,81.953,176.19,72.037,176.19,66.697,195.7,61.318,176.19,51.246,176.19" transform="matrix(4.7763705,0,0,4.7763705,-193.74153,-739.7969)"/>
<polygon points="57.782,170.77,58.499,171.9,58.448,172.87,59.216,172.82,61.316,169.76" fill="#ffe667" transform="matrix(4.7763705,0,0,4.7763705,-193.74153,-739.7969)"/>
<polygon transform="matrix(4.7763705,0,0,4.7763705,-193.74153,-739.7969)" stroke="#000" points="57.782,170.77,58.499,171.9,58.448,172.87,59.216,172.82,61.316,169.76" stroke-miterlimit="3.86400008" stroke-width="0.141" fill="none"/>
</svg>
